<?xml version="1.0" encoding="UTF-8" standalone="no"?><!-- Generator: Gravit.io --><svg xmlns="http://www.w3.org/2000/svg" xmlns:xlink="http://www.w3.org/1999/xlink" style="isolation:isolate" viewBox="0 0 550 550" width="550pt" height="550pt"><defs><clipPath id="_clipPath_IlgR8IneUZBnQajHIbsDdJo7b1UIwDsf"><rect width="550" height="550"/></clipPath></defs><g clip-path="url(#_clipPath_IlgR8IneUZBnQajHIbsDdJo7b1UIwDsf)"><g><path d=" M 430.415 368.951 L 430.415 419 L 498.902 419" fill="none" vector-effect="non-scaling-stroke" stroke-width="46" stroke="rgb(33,33,33)" stroke-linejoin="round" stroke-linecap="round" stroke-miterlimit="3"/><path d=" M 190.707 133.634 L 51.098 133.634 L 51.098 419" fill="none" vector-effect="non-scaling-stroke" stroke-width="46" stroke="rgb(33,33,33)" stroke-linejoin="round" stroke-linecap="round" stroke-miterlimit="3"/><line x1="498.902" y1="351.39" x2="498.902" y2="173.146" vector-effect="non-scaling-stroke" stroke-width="46" stroke="rgb(66,133,244)" stroke-linejoin="miter" stroke-linecap="round" stroke-miterlimit="3"/><path d=" M 260.073 131 L 422.512 131 C 427.358 131 431.293 134.934 431.293 139.78 L 431.293 301.341 C 431.293 306.188 428.605 307.249 425.294 303.71 L 380.366 255.683 C 334.587 293.114 314.512 309.883 314.512 340.854 C 314.512 369.627 333.951 389.244 365.439 418.122 C 275.276 418.122 230.488 377.504 229.341 300.463 C 231.139 256.154 255.836 215.652 298.707 184.561 L 257.113 137.574 C 253.901 133.946 255.227 131 260.073 131 Z " fill="rgb(15,157,88)" vector-effect="non-scaling-stroke" stroke-width="46" stroke="rgb(33,33,33)" stroke-linejoin="round" stroke-linecap="butt" stroke-miterlimit="3"/></g></g></svg>