<?xml version="1.0" encoding="UTF-8" standalone="no"?><!-- Generator: Gravit.io --><svg xmlns="http://www.w3.org/2000/svg" xmlns:xlink="http://www.w3.org/1999/xlink" style="isolation:isolate" viewBox="0 0 550 550" width="550pt" height="550pt"><defs><clipPath id="_clipPath_kZX7sy2hhcnIDdepyDQ8tIee3YXqDwO2"><rect width="550" height="550"/></clipPath></defs><g clip-path="url(#_clipPath_kZX7sy2hhcnIDdepyDQ8tIee3YXqDwO2)"><rect width="550" height="550" style="fill:rgb(0,0,0)" fill-opacity="0"/><g><path d=" M 436.819 416.358 L 435.585 477.356 L 505.265 477.356 L 522.342 477.356" fill="none" vector-effect="non-scaling-stroke" stroke-width="46" stroke="rgb(33,33,33)" stroke-linejoin="round" stroke-linecap="round" stroke-miterlimit="3"/><path d=" M 89.198 76.345 L 27.658 76.345 L 27.658 477.356" fill="none" vector-effect="non-scaling-stroke" stroke-width="46" stroke="rgb(33,33,33)" stroke-linejoin="round" stroke-linecap="round" stroke-miterlimit="3"/><line x1="522.342" y1="388.634" x2="522.342" y2="138.157" vector-effect="non-scaling-stroke" stroke-width="46" stroke="rgb(66,133,244)" stroke-linejoin="miter" stroke-linecap="round" stroke-miterlimit="3"/><path d=" M 196.213 72.644 L 424.481 72.644 C 431.29 72.644 436.819 78.173 436.819 84.983 L 436.819 312.016 C 436.819 318.826 433.042 320.318 428.39 315.345 L 365.254 247.855 C 300.924 300.455 272.713 324.019 272.713 367.541 C 272.713 407.975 300.03 435.542 344.278 476.122 C 217.577 476.122 154.638 419.044 153.027 310.783 C 155.553 248.517 190.258 191.601 250.503 147.91 L 192.053 81.883 C 187.539 76.783 189.403 72.644 196.213 72.644 Z " fill="rgb(33,33,33)" vector-effect="non-scaling-stroke" stroke-width="45" stroke="rgb(33,33,33)" stroke-linejoin="round" stroke-linecap="butt" stroke-miterlimit="3"/></g></g></svg>